#!OML:ASF H:\Terrain\Patient Classification 1\Terrain2\Thursday\justin.ASF
:FULLY-SPECIFIED
:DEGREES
1039
root 14.8887 20.5248 -12.4374 338.397 73.8864 -27.3016
lowerback 10.536 -0.975939 1.24057
upperback 3.16417 -0.946536 3.09719
thorax -2.57812 -0.42843 2.63377
lowerneck -9.16624 -2.3563 -10.2799
upperneck 38.7461 -1.25039 5.1637
head 15.223 -0.879411 3.98513
rclavicle 2.62396e-014 -1.39149e-015
rhumerus -37.4629 -5.02847 -76.4827
rradius 45.4322
rwrist -13.8092
rhand -22.3597 14.2923
rfingers 7.12502
rthumb 4.06147 -15.6488
lclavicle 2.62396e-014 -1.39149e-015
lhumerus -36.442 -2.19725 83.758
lradius 56.313
lwrist 9.07637
lhand -20.3645 17.193
lfingers 7.12502
lthumb 5.9879 47.0884
rfemur -27.3823 -6.64016 28.0211
rtibia 50.4938
rfoot -27.2215 2.2135
rtoes -4.60439
lfemur -26.3454 3.06378 -14.1777
ltibia 35.0803
lfoot -8.27862 -16.9043
ltoes 13.9234
1040
root 14.9518 20.5146 -12.4388 339.855 74.6548 -25.5718
lowerback 10.1656 -1.11332 0.65322
upperback 3.17503 -1.21145 2.93511
thorax -2.34452 -0.563655 2.81981
lowerneck -9.21586 -2.3974 -10.1126
upperneck 38.9051 -1.23078 4.88661
head 15.3114 -0.882459 3.84707
rclavicle 1.38652e-014 -1.25234e-014
rhumerus -37.2917 -4.99532 -76.5087
rradius 44.8411
rwrist -13.948
rhand -22.6746 14.4712
rfingers 7.12502
rthumb 3.75736 -15.4755
lclavicle 1.38652e-014 -1.25234e-014
lhumerus -36.3459 -2.12192 83.7498
lradius 55.979
lwrist 8.89015
lhand -20.2964 17.3619
lfingers 7.12502
lthumb 6.05368 47.2554
rfemur -27.2398 -7.23781 27.3449
rtibia 49.408
rfoot -26.8484 2.05734
rtoes -5.15175
lfemur -26.1412 2.77943 -15.1415
ltibia 35.4752
lfoot -8.47845 -17.1894
ltoes 14.1712
1041
root 15.0044 20.4994 -12.4309 340.948 75.0952 -24.1786
lowerback 10.024 -1.17191 0.149048
upperback 3.10022 -1.35301 2.76435
thorax -2.33013 -0.636746 2.94083
lowerneck -9.07449 -2.35912 -9.8596
upperneck 39.0747 -1.1985 4.80332
head 15.3543 -0.840802 3.77852
rclavicle 4.09993e-014 3.18055e-015
rhumerus -37.2668 -5.22238 -76.5954
rradius 44.2505
rwrist -13.456
rhand -22.6316 14.3637
rfingers 7.12502
rthumb 3.79889 -15.5822
lclavicle 4.09993e-014 3.18055e-015
lhumerus -36.4221 -1.98553 83.5816
lradius 55.5705
lwrist 8.62549
lhand -20.3999 17.435
lfingers 7.12502
lthumb 5.95375 47.3314
rfemur -27.0102 -7.10317 26.9126
rtibia 48.3699
rfoot -26.5689 1.5657
rtoes -5.48123
lfemur -25.8631 2.79214 -15.7622
ltibia 35.7822
lfoot -8.40619 -17.9601
ltoes 16.1603
1042
root 15.0567 20.4909 -12.4129 338.748 75.1426 -26.1352
lowerback 9.88308 -1.11048 0.721887
upperback 3.07453 -1.21097 2.89813
thorax -2.29584 -0.564943 2.73697
lowerneck -8.92661 -2.45899 -10.0795
upperneck 39.2167 -1.35261 5.00169
head 15.4139 -0.907618 3.8899
rclavicle 5.46658e-016 -4.17448e-015
rhumerus -37.2748 -5.823 -76.331
rradius 43.5722
rwrist -12.9524
rhand -22.1755 14.1334
rfingers 7.12502
rthumb 4.23927 -15.8041
lclavicle 5.46658e-016 -4.17448e-015
lhumerus -36.3872 -2.09591 83.7271
lradius 55.0965
lwrist 8.52597
lhand -20.6041 17.1501
lfingers 7.12502
lthumb 5.7566 47.0519
rfemur -26.621 -6.43489 27.4503
rtibia 47.387
rfoot -26.8766 1.47168
rtoes -5.74281
lfemur -25.5161 2.80731 -15.2136
ltibia 36.074
lfoot -8.3434 -18.6767
ltoes 18.7075
1043
root 15.1179 20.4818 -12.4015 336.791 75.3073 -27.9486
lowerback 9.45869 -1.06112 1.31957
upperback 3.11129 -1.09203 3.1012
thorax -2.03654 -0.504572 2.58712
lowerneck -8.88758 -2.63137 -10.5116
upperneck 39.3043 -1.51977 5.09786
head 15.4821 -1.02449 3.99144
rclavicle -7.10655e-015 2.95195e-014
rhumerus -37.1275 -6.30172 -75.8884
rradius 42.8662
rwrist -12.5717
rhand -22.0029 13.8791
rfingers 7.12502
rthumb 4.40599 -16.0551
lclavicle -7.10655e-015 2.95195e-014
lhumerus -36.2397 -2.27281 84.2113
lradius 54.7415
lwrist 9.20773
lhand -21.6175 17.3319
lfingers 7.12502
lthumb 4.77814 47.258
rfemur -26.3052 -6.26343 27.8542
rtibia 46.5111
rfoot -27.2472 1.84248
rtoes -6.47068
lfemur -25.2316 2.82272 -14.8358
ltibia 36.3071
lfoot -8.69162 -19.0858
ltoes 19.7916
1044
root 15.18 20.4637 -12.3892 336.492 75.6854 -28.0102
lowerback 9.04489 -1.03162 1.3908
upperback 3.1544 -1.062 3.11734
thorax -1.76596 -0.490202 2.5507
lowerneck -8.88604 -2.78606 -10.7129
upperneck 39.4652 -1.65487 5.04442
head 15.5887 -1.11499 3.99446
rclavicle -1.29707e-014 1.67476e-014
rhumerus -37.0189 -6.87872 -75.563
rradius 42.2035
rwrist -12.0545
rhand -22.1251 13.8003
rfingers 7.12502
rthumb 4.28799 -16.1363
lclavicle -1.29707e-014 1.67476e-014
lhumerus -36.1416 -2.47912 84.6322
lradius 54.4348
lwrist 10.1176
lhand -23.0952 17.8053
lfingers 7.12502
lthumb 3.35114 47.7587
rfemur -25.9176 -6.44335 27.7216
rtibia 45.7349
rfoot -27.0447 2.2384
rtoes -6.08055
lfemur -24.8806 2.7665 -15.0432
ltibia 36.516
lfoot -9.24572 -19.3604
ltoes 16.7552
1045
root 15.2426 20.4501 -12.3709 339.423 76.6754 -24.4883
lowerback 8.8481 -0.983897 0.420794
upperback 3.23325 -1.10543 2.78084
thorax -1.56234 -0.518598 2.74701
lowerneck -8.83502 -2.98725 -10.7201
upperneck 39.6376 -1.92472 5.02392
head 15.6995 -1.22896 3.95687
rclavicle 4.08378e-014 -2.52829e-014
rhumerus -37.0624 -7.78524 -75.3158
rradius 41.525
rwrist -11.3754
rhand -21.7475 13.7761
rfingers 7.12502
rthumb 4.65263 -16.1528
lclavicle 4.08378e-014 -2.52829e-014
lhumerus -35.9362 -2.52433 84.6708
lradius 53.8895
lwrist 9.35474
lhand -22.5504 17.9239
lfingers 7.12502
lthumb 3.87726 47.8684
rfemur -25.2661 -6.81368 26.3537
rtibia 45.1319
rfoot -26.6615 2.95124
rtoes -3.79016
lfemur -24.1897 2.49307 -16.3974
ltibia 36.5985
lfoot -9.58059 -19.8094
ltoes 11.7746
1046
root 15.2941 20.4345 -12.3609 340.567 76.8184 -22.8325
lowerback 8.85969 -0.733584 0.237504
upperback 3.25383 -0.797974 2.53512
thorax -1.56227 -0.366441 2.56472
lowerneck -8.73833 -3.23128 -10.5033
upperneck 39.8768 -2.34318 5.08106
head 15.8442 -1.36116 3.89392
rclavicle -2.54693e-016 -6.16232e-015
rhumerus -37.248 -8.62691 -75.2738
rradius 40.878
rwrist -10.8034
rhand -21.3035 13.649
rfingers 7.12502
rthumb 5.08127 -16.2701
lclavicle -2.54693e-016 -6.16232e-015
lhumerus -35.7166 -2.60031 84.3573
lradius 53.2216
lwrist 7.62916
lhand -20.2992 17.8731
lfingers 7.12502
lthumb 6.05101 47.7667
rfemur -24.6156 -6.13697 25.8053
rtibia 44.5615
rfoot -26.152 3.50446
rtoes -0.0703926
lfemur -23.4987 2.47003 -16.8411
ltibia 36.6788
lfoot -9.96476 -20
ltoes 11.3716
1047
root 15.3486 20.415 -12.3512 340.848 77.1169 -22.1691
lowerback 8.75778 -0.654265 0.258333
upperback 3.22048 -0.700416 2.33855
thorax -1.54781 -0.318347 2.33812
lowerneck -8.54581 -3.35284 -10.2462
upperneck 40.0955 -2.59308 5.1264
head 15.9336 -1.41667 3.84238
rclavicle -5.65915e-015 1.83876e-014
rhumerus -37.334 -9.07092 -75.39
rradius 40.1536
rwrist -10.6228
rhand -21.4907 13.799
rfingers 7.12502
rthumb 4.90052 -16.1244
lclavicle -5.65915e-015 1.83876e-014
lhumerus -35.6657 -2.56548 84.0319
lradius 52.6449
lwrist 6.8722
lhand -19.4153 17.9055
lfingers 7.12502
lthumb 6.90423 47.773
rfemur -24.0198 -5.71001 25.4687
rtibia 44.0038
rfoot -25.7275 3.7818
rtoes 1.76831
lfemur -22.9607 2.47236 -17.1198
ltibia 36.7799
lfoot -9.97392 -20.3641
ltoes 15.4093
1048
root 15.405 20.3996 -12.3328 340.814 77.38 -21.9452
lowerback 8.43367 -0.706688 0.0660921
upperback 3.23 -0.790417 2.41994
thorax -1.35161 -0.366208 2.53439
lowerneck -8.47939 -3.29428 -10.2861
upperneck 40.2586 -2.4186 4.97583
head 15.9855 -1.3651 3.81891
rclavicle -1.13012e-014 2.24751e-014
rhumerus -37.2052 -8.78039 -75.4919
rradius 39.5269
rwrist -10.9707
rhand -21.9516 13.9936
rfingers 7.12502
rthumb 4.45555 -15.9395
lclavicle -1.13012e-014 2.24751e-014
lhumerus -35.5976 -1.72906 83.9588
lradius 52.0685
lwrist 6.63341
lhand -19.8872 17.8969
lfingers 7.12502
lthumb 6.44868 47.7788
rfemur -23.4605 -5.45206 25.2717
rtibia 43.4088
rfoot -25.6669 3.72462
rtoes 0.317044
lfemur -22.5763 2.22035 -17.2279
ltibia 37.0199
lfoot -10.0122 -20.4051
ltoes 20.0046
